<svg width="640" height="360" viewBox="0 0 640 360" fill="none" xmlns="http://www.w3.org/2000/svg">
  <defs>
    <linearGradient id="bg" x1="0" y1="0" x2="640" y2="360" gradientUnits="userSpaceOnUse">
      <stop stop-color="#111827"/>
      <stop offset="1" stop-color="#1F2937"/>
    </linearGradient>
    <linearGradient id="card" x1="0" y1="0" x2="1" y2="1">
      <stop stop-color="#FCD34D"/>
      <stop offset="1" stop-color="#F59E0B"/>
    </linearGradient>
  </defs>

  <rect x="8" y="8" width="624" height="344" rx="16" fill="url(#bg)" stroke="#F59E0B" stroke-width="4"/>
  <rect x="40" y="44" width="220" height="128" rx="12" fill="#0F172A" stroke="#334155" stroke-width="2"/>
  <rect x="380" y="36" width="216" height="140" rx="12" fill="#0B1220" stroke="#334155" stroke-width="2"/>
  <rect x="84" y="210" width="188" height="110" rx="12" fill="#0B1220" stroke="#334155" stroke-width="2"/>
  <rect x="336" y="204" width="240" height="120" rx="12" fill="#0F172A" stroke="#334155" stroke-width="2"/>

  <circle cx="88" cy="68" r="8" fill="#EF4444"/>
  <circle cx="246" cy="150" r="8" fill="#EF4444"/>
  <circle cx="410" cy="70" r="8" fill="#EF4444"/>
  <circle cx="560" cy="152" r="8" fill="#EF4444"/>
  <circle cx="108" cy="288" r="8" fill="#EF4444"/>
  <circle cx="520" cy="290" r="8" fill="#EF4444"/>

  <path d="M88 68 L246 150 L410 70 L560 152" stroke="#F87171" stroke-width="2.5" stroke-dasharray="8 6"/>
  <path d="M108 288 L246 150 L520 290 L410 70" stroke="#FB7185" stroke-width="2.5" stroke-dasharray="8 6"/>

  <rect x="54" y="58" width="66" height="44" rx="6" fill="url(#card)"/>
  <rect x="420" y="52" width="72" height="48" rx="6" fill="url(#card)"/>
  <rect x="350" y="224" width="90" height="56" rx="6" fill="url(#card)"/>

  <rect x="128" y="78" width="108" height="8" rx="4" fill="#475569"/>
  <rect x="128" y="94" width="90" height="8" rx="4" fill="#475569"/>
  <rect x="128" y="110" width="78" height="8" rx="4" fill="#475569"/>

  <rect x="402" y="102" width="176" height="6" rx="3" fill="#334155"/>
  <rect x="402" y="116" width="152" height="6" rx="3" fill="#334155"/>
  <rect x="402" y="130" width="136" height="6" rx="3" fill="#334155"/>

  <rect x="104" y="228" width="140" height="6" rx="3" fill="#334155"/>
  <rect x="104" y="242" width="120" height="6" rx="3" fill="#334155"/>
  <rect x="104" y="256" width="92" height="6" rx="3" fill="#334155"/>

  <rect x="458" y="220" width="98" height="68" rx="8" fill="#111827" stroke="#475569"/>
  <circle cx="500" cy="250" r="18" fill="#F59E0B"/>
  <rect x="486" y="268" width="28" height="8" rx="4" fill="#FBBF24"/>

  <text x="52" y="194" fill="#FACC15" font-size="20" font-family="monospace" font-weight="700">CASE BOARD</text>
  <text x="420" y="194" fill="#9CA3AF" font-size="12" font-family="monospace">TRACK CLUES • FOLLOW TRAIL</text>
</svg>
